<svg width="70" height="70" viewBox="0 0 70 70" fill="none" xmlns="http://www.w3.org/2000/svg">
<path fill-rule="evenodd" clip-rule="evenodd" d="M15.0028 12.8452C14.8122 13.035 14.6562 13.2816 14.6562 13.3934C14.6562 13.56 14.2321 13.6068 12.2914 13.6545C9.63559 13.7197 9.03316 13.8733 7.7498 14.8115C6.34136 15.8411 6.20978 16.1455 2.93122 25.951C0.109959 34.3888 -0.0576255 34.9487 0.0111307 35.7036C0.150902 37.2391 1.02398 38.5109 2.3607 39.1266C2.96002 39.4028 3.28714 39.4284 6.72622 39.4689C10.6714 39.5153 10.9883 39.47 11.1804 38.8314C11.2218 38.6939 11.6724 35.4605 12.1821 31.6459C12.6916 27.8314 13.1933 24.5088 13.2966 24.2621C13.4001 24.0157 13.7324 23.5972 14.0351 23.3322L14.5856 22.8504L14.682 25.4435C14.8458 29.8451 15.3144 35.4776 15.7259 37.994C15.8133 38.5278 15.8173 38.5306 16.3645 38.4509C18.2058 38.1824 18.0677 38.2354 17.9843 37.8296C17.6733 36.3169 17.1438 30.1366 16.9737 26.0329L16.879 23.7481H18.6395H20.4L20.5606 24.2817C20.7926 25.0532 21.6052 25.9233 22.501 26.3598C23.3738 26.7851 23.6919 27.1453 23.6919 27.7084C23.6919 28.2303 23.1941 28.7219 22.3611 29.0226C21.5447 29.3173 20.6194 30.1876 20.2699 30.9891C19.9847 31.6431 15.9624 49.5803 15.8334 50.7729C15.5145 53.7234 17.7348 56.7189 20.6987 57.3365C21.7522 57.5559 43.7176 57.5538 44.7566 57.3342C47.7432 56.7026 49.9424 53.7368 49.6219 50.7729C49.4458 49.1456 45.436 31.5748 45.0675 30.8161C44.6531 29.9632 43.9387 29.3248 43.0357 29.0004C41.9106 28.5962 41.4578 27.7602 41.9696 27.0324C42.0831 26.871 42.5262 26.5684 42.9542 26.3598C44.2351 25.7358 45.1518 24.3757 45.1518 23.0998C45.1518 22.7577 45.227 22.6185 45.4497 22.5481C45.6136 22.4963 46.9516 21.7327 48.423 20.8514L51.0984 19.2489H60.2027H69.3069L69.6534 18.9037C69.9972 18.5615 70 18.5369 70 15.8744C70 13.212 69.9972 13.1874 69.6534 12.8452L69.3069 12.5H57.0111H44.7154L44.3689 12.8452C44.1783 13.035 44.0223 13.2881 44.0223 13.4076C44.0223 13.6018 42.8208 13.6248 32.7276 13.6248C22.6345 13.6248 21.433 13.6018 21.433 13.4076C21.433 13.2881 21.277 13.035 21.0864 12.8452C20.7427 12.5028 20.718 12.5 18.0446 12.5C15.3712 12.5 15.3464 12.5028 15.0028 12.8452ZM19.1741 18.124V21.4985H18.0446H16.9151V18.124V14.7496H18.0446H19.1741V18.124ZM60.9643 15.8744V16.9992H55.7257H50.4871L48.3841 18.2597L46.2812 19.5202V17.1349V14.7496H53.6228H60.9643V15.8744ZM67.7411 15.8744V16.9992H65.4821H63.2232V15.8744V14.7496H65.4821H67.7411V15.8744ZM14.6562 18.1685V20.4625L13.8444 20.7969C12.8732 21.1969 11.7436 22.2676 11.3049 23.2038C11.0415 23.7662 10.9271 23.8683 10.4633 23.9548C9.01424 24.2249 7.16008 25.6105 6.40913 26.9846C6.14017 27.4768 5.63177 29.2148 4.83974 32.3499C4.19538 34.9006 3.63121 37.0242 3.58603 37.0691C3.54085 37.1141 3.34475 37.0786 3.15006 36.9903C2.71874 36.7946 2.23335 36.0371 2.23265 35.5586C2.23194 35.0922 7.94492 18.0387 8.29152 17.4725C8.62754 16.9237 9.40687 16.3224 10.1028 16.0751C10.4471 15.9526 11.3364 15.8846 12.6443 15.8806L14.6562 15.8744V18.1685ZM22.5625 16.9992V18.124H23.6919H24.8214V16.9992V15.8744H25.9509H27.0803V16.9992V18.124H28.2098H29.3392V16.9992V15.8744H30.4687H31.5982V16.9992V18.124H32.7276H33.8571V16.9992V15.8744H34.9866H36.116V16.9992V18.124H37.2455H38.375V16.9992V15.8744H39.5044H40.6339V16.9992V18.124H41.7634H42.8928V16.9992V15.8744H43.4576H44.0223V18.124V20.3737H32.7276H21.433V18.124V15.8744H21.9977H22.5625V16.9992ZM42.8928 23.0261C42.8928 23.5941 42.449 24.0892 41.4775 24.6049C39.8365 25.4759 39.1292 27.1529 39.7107 28.7943C40.0569 29.7712 40.5887 30.3242 41.69 30.8516C42.8513 31.4079 43.1354 31.6694 43.2617 32.2989L43.3517 32.7466H32.7276H22.1036L22.1935 32.2989C22.3199 31.6694 22.604 31.4079 23.7653 30.8516C24.8666 30.3242 25.3984 29.7712 25.7446 28.7943C26.3261 27.1529 25.6188 25.4759 23.9778 24.6049C23.0063 24.0892 22.5625 23.5941 22.5625 23.0261V22.6233H32.7276H42.8928V23.0261ZM10.5606 26.525C10.5601 26.6604 10.243 29.112 9.85597 31.9733C9.46899 34.8345 9.15189 37.1914 9.15133 37.2107C9.15062 37.2299 8.42607 37.2458 7.54128 37.2458H5.93249L7.02779 32.914C7.63022 30.5314 8.20568 28.4277 8.30649 28.239C8.67018 27.5591 9.0854 27.0985 9.70109 26.6924C10.4272 26.2134 10.5623 26.1871 10.5606 26.525ZM43.9294 35.3125C43.9727 35.4866 44.7792 39.0771 45.7216 43.2917C47.579 51.5989 47.6027 51.7813 46.9836 53.0103C46.5629 53.846 46.062 54.3546 45.2224 54.7989L44.5164 55.1725H32.7276H20.9389L20.3577 54.8629C19.4477 54.3781 18.9078 53.8591 18.5195 53.0961C17.8461 51.7725 17.8567 51.6867 19.7337 43.2917C20.6761 39.0771 21.4825 35.4866 21.5259 35.3125L21.6048 34.9962H32.7276H43.8505L43.9294 35.3125Z" fill="white"/>
<path d="M37.2447 37.4286C38.5586 37.0163 39.7151 37.3056 40.7086 38.2948C41.4398 39.023 41.7623 39.7356 41.7623 40.62C41.7621 42.8424 39.2707 44.6059 37.2935 43.7831C37.0153 43.6674 36.7667 43.5726 36.7398 43.5722C36.714 43.5722 36.7892 43.8413 36.9078 44.1698C37.2145 45.0201 37.3095 46.5937 37.1109 47.5458C36.8445 48.8221 36.0919 50.1665 35.1344 51.0761C32.4413 53.6341 28.365 53.5971 25.7515 50.9911C22.8458 48.0937 23.115 43.4987 26.3385 40.9716C28.6867 39.1308 32.1668 39.074 34.4898 40.8388L34.9859 41.2157V40.6884C34.9859 39.7364 35.2922 39.0399 36.0396 38.2938C36.4306 37.9038 36.9729 37.5139 37.2447 37.4286ZM32.3736 42.1776C31.452 41.7422 29.9481 41.6483 29.0572 41.9706C25.198 43.3672 24.8921 48.525 28.5621 50.3222C29.1471 50.6087 29.4737 50.6675 30.4683 50.664C31.4851 50.6603 31.7782 50.6023 32.3892 50.287C33.4525 49.7383 33.8961 49.3119 34.4293 48.3251C34.8656 47.5177 34.9076 47.3332 34.9088 46.244C34.9098 45.2574 34.8497 44.926 34.5631 44.3456C34.1166 43.4413 33.266 42.5993 32.3736 42.1776ZM38.3746 39.495C38.0996 39.495 37.8098 39.6231 37.5914 39.8407C37.3729 40.0582 37.2447 40.3462 37.2447 40.62C37.2447 40.8938 37.3729 41.1818 37.5914 41.3993C37.8098 41.617 38.0996 41.745 38.3746 41.745C38.6495 41.7449 38.9385 41.6168 39.1568 41.3993C39.3753 41.1818 39.5035 40.8939 39.5035 40.62C39.5035 40.3461 39.3753 40.0582 39.1568 39.8407C38.9385 39.6232 38.6495 39.4951 38.3746 39.495Z" fill="#DB3138"/>
</svg>
