<svg width="46" height="52" viewBox="0 0 46 52" fill="none" xmlns="http://www.w3.org/2000/svg">
<path fill-rule="evenodd" clip-rule="evenodd" d="M9.11787 0.162014C8.11413 0.492505 7.37783 1.21648 7.0747 2.17087C6.98691 2.44741 6.9213 3.07812 6.9213 3.64593V4.63781L4.91147 4.67114C2.61318 4.70923 2.26545 4.79945 1.45455 5.56802C0.568612 6.40771 0.352621 7.40101 0.589193 9.54875C0.996198 13.2446 2.32666 16.1015 4.57853 18.1148C5.75056 19.1626 7.18092 19.9746 8.53218 20.359C8.9693 20.4834 9.04776 20.5555 9.32057 21.084C10.2003 22.7881 11.6927 24.8594 13.1381 26.3823C13.96 27.2483 15.5282 28.574 16.7293 29.4181C17.8148 30.1811 18.0972 30.4552 18.4082 31.0482C18.652 31.5129 18.6596 31.6101 18.6923 34.682L18.7259 37.8382L17.9221 38.2147C16.6451 38.813 15.8536 39.8112 15.5928 41.1525L15.4641 41.8143L14.5424 41.8582C13.4337 41.911 12.8145 42.1447 12.1737 42.752C11.2743 43.6044 11.2668 43.6437 11.2307 47.6978L11.1988 51.2721L11.5166 51.6093L11.8345 51.9465L22.9343 51.9733L34.0341 52L34.3858 51.7021L34.7374 51.4042V47.764C34.7374 44.2536 34.7292 44.1067 34.5071 43.6513C34.3804 43.3915 34.074 42.9868 33.8263 42.752C33.1867 42.1458 32.5659 41.911 31.4635 41.8585L30.5477 41.8148L30.4141 41.147C30.1419 39.7873 29.2919 38.7544 27.9507 38.1534L27.274 37.8503L27.3076 34.688C27.3404 31.6098 27.3479 31.513 27.5918 31.0482C27.9027 30.4553 28.1849 30.1812 29.2707 29.4179C32.3877 27.2265 34.8345 24.5085 36.5266 21.3577C36.9643 20.5426 37.0137 20.4905 37.4708 20.3593C38.8377 19.9672 40.3448 19.1072 41.4713 18.0765C43.7054 16.0326 45.007 13.2149 45.4108 9.54875C45.6474 7.40101 45.4314 6.40771 44.5455 5.56802C43.7354 4.80026 43.3855 4.70923 41.0996 4.67124L39.1008 4.63812L39.0589 3.45209C39.0261 2.52269 38.9681 2.16396 38.7907 1.79384C38.5025 1.1925 37.8049 0.529689 37.1652 0.249387L36.6669 0.0310574L23.1608 0.0081984C10.5688 -0.0131367 9.61834 -0.00277394 9.11787 0.162014ZM36.584 2.3448L36.8813 2.62662L36.8784 7.98336C36.8752 13.8646 36.8554 14.1042 36.176 16.5302C35.6151 18.532 34.5235 20.8443 33.3649 22.4837C32.0239 24.3814 30.0156 26.3547 27.9266 27.8269C26.6251 28.7443 26.1798 29.1911 25.7401 30.0208C25.1833 31.0717 25.1438 31.4279 25.1438 35.4061V39.0914L25.4386 39.3989C25.6662 39.6363 25.8801 39.731 26.3765 39.8142C27.4163 39.9885 28.1474 40.6097 28.3103 41.4567L28.3835 41.8377H23H17.6165L17.6897 41.4567C17.8521 40.6118 18.6287 39.9432 19.5706 39.8376C19.9782 39.7918 20.2347 39.6938 20.4716 39.4934L20.8026 39.2131L20.8332 35.4877C20.8665 31.4442 20.8301 31.097 20.2618 30.0244C19.8201 29.1909 19.3763 28.7453 18.0734 27.8269C15.9833 26.3538 13.9691 24.3745 12.6361 22.4837C11.4982 20.8697 10.3719 18.487 9.82683 16.5404C9.14424 14.1029 9.12484 13.8672 9.12162 7.99179C9.11883 2.7844 9.12441 2.63739 9.33311 2.41744C9.45102 2.29309 9.64396 2.1537 9.76187 2.10757C9.87978 2.06155 15.8961 2.03259 23.1315 2.04336L36.2869 2.06297L36.584 2.3448ZM6.9213 9.41098C6.9213 13.0505 7.1583 15.1706 7.7902 17.1851C7.91025 17.5676 7.98732 17.9005 7.96149 17.925C7.85923 18.0219 6.29198 16.928 5.72248 16.3622C3.84181 14.4934 2.7446 11.601 2.70172 8.39919C2.68896 7.45079 2.7134 7.29119 2.90163 7.09186C3.24014 6.73333 3.44134 6.69888 5.23304 6.69198L6.9213 6.68558V9.41098ZM43.0158 7.01922C43.3055 7.29505 43.3124 7.32868 43.2983 8.39076C43.2557 11.6008 42.1603 14.4913 40.2775 16.3622C39.708 16.928 38.1408 18.0219 38.0385 17.925C38.0127 17.9005 38.0897 17.5676 38.2098 17.1851C38.842 15.1695 39.0787 13.0506 39.0787 9.40428V6.67216L40.8988 6.70427L42.7189 6.73637L43.0158 7.01922ZM32.2965 44.2019L32.5936 44.4834L32.6253 47.2244L32.6571 49.9653H23H13.3429L13.3746 47.2327C13.4044 44.6663 13.4195 44.4864 13.6208 44.2745C13.7387 44.1503 13.9316 44.011 14.0495 43.9647C14.1674 43.9185 18.2543 43.8896 23.1316 43.9005L31.9992 43.9204L32.2965 44.2019ZM18.3252 46.0011C17.9877 46.1303 17.6404 46.6012 17.6404 46.9296C17.6404 47.1058 17.7627 47.3489 17.953 47.5508L18.2656 47.8826L20.7859 47.9132L23.306 47.9438L23.6598 47.6442C23.9537 47.3953 24.0135 47.2724 24.0135 46.9175C24.0135 46.5639 23.9535 46.4396 23.6658 46.1959L23.3181 45.9015L20.9349 45.9079C19.624 45.9115 18.4497 45.9534 18.3252 46.0011ZM26.9005 46.0011C26.563 46.1303 26.2157 46.6012 26.2157 46.9296C26.2157 47.3363 26.7084 47.8243 27.1926 47.8972C27.519 47.9463 27.6365 47.9075 27.9404 47.6501C28.2415 47.3951 28.3011 47.2742 28.3011 46.9175C28.3011 46.5639 28.2411 46.4396 27.9534 46.1959C27.6013 45.8977 27.3109 45.8439 26.9005 46.0011Z" fill="white"/>
<path d="M22.7964 6.14965C22.9606 6.10661 23.4466 6.20907 23.6538 6.33032C23.7167 6.3673 24.2716 7.34993 24.8862 8.51391C25.8834 10.4026 26.0355 10.6365 26.3022 10.6868C26.4671 10.7178 27.494 10.862 28.5845 11.0071C29.6745 11.1522 30.7258 11.3364 30.9214 11.4172C31.3239 11.5841 31.596 12.0755 31.5132 12.4866C31.4791 12.6557 30.8162 13.3602 29.6685 14.4465L27.8774 16.1418L28.2886 18.3987C28.5144 19.6398 28.6712 20.7623 28.6372 20.8928C28.6032 21.0234 28.459 21.2404 28.3169 21.3752C27.8476 21.82 27.4892 21.7286 25.1108 20.5598L22.9536 19.4993L20.8384 20.5598C18.6771 21.6433 18.2575 21.7726 17.7417 21.511C17.6226 21.4505 17.4607 21.2533 17.3813 21.0735C17.2529 20.7819 17.2816 20.4979 17.6499 18.4495L18.063 16.1516L16.2495 14.4407C14.5414 12.829 14.4351 12.7061 14.4351 12.345C14.4352 11.8342 14.6949 11.4853 15.1704 11.3567C15.3851 11.2987 16.5416 11.1188 17.7407 10.9573C18.9397 10.7957 19.9375 10.6482 19.9575 10.6291C19.9796 10.6061 20.4759 9.65458 21.062 8.51098C22.1102 6.46566 22.2326 6.299 22.7964 6.14965ZM22.9585 9.57446C22.9152 9.53555 22.5609 10.1278 22.1704 10.8918C21.7796 11.6567 21.3565 12.346 21.23 12.4231C21.1033 12.5002 20.3033 12.6589 19.4526 12.7756C18.6037 12.8922 17.8907 13.0043 17.8657 13.0256C17.8435 13.0467 18.3174 13.5148 18.9185 14.0657C19.5194 14.6166 20.0758 15.2123 20.1548 15.3889C20.2802 15.6695 20.2646 15.8906 20.0327 17.1438C19.8867 17.9326 19.7671 18.6258 19.7671 18.6838C19.7688 18.7409 20.4133 18.4659 21.2007 18.0715C21.9885 17.6771 22.7677 17.3543 22.9331 17.3538C23.0976 17.3538 23.8756 17.6721 24.6616 18.0618C25.7962 18.6244 26.0904 18.7348 26.0903 18.5959C26.09 18.4995 25.9946 17.8946 25.8774 17.2522C25.5224 15.3046 25.4637 15.4782 26.9224 14.1428C27.615 13.5087 28.1236 12.989 28.0532 12.9875C27.3553 12.9736 24.9167 12.5419 24.6978 12.3938C24.5496 12.2929 24.117 11.6371 23.7329 10.9299C23.3498 10.2246 23.0014 9.61458 22.9585 9.57446Z" fill="#DB3138"/>
<ellipse cx="27.4052" cy="47.0189" rx="1.1791" ry="1.11755" fill="#DB3138"/>
</svg>
