<svg width="70" height="70" viewBox="0 0 70 70" fill="none" xmlns="http://www.w3.org/2000/svg">
<path fill-rule="evenodd" clip-rule="evenodd" d="M9.25488 0.178748C8.56795 0.397092 7.39634 1.6205 7.18569 2.33947C6.9381 3.18462 6.9381 66.8097 7.18569 67.6548C7.41285 68.4301 8.57229 69.5993 9.3411 69.8284C9.78225 69.9598 14.8782 70 31.1031 70H52.2889L57.6444 64.5993L63 59.1987V31.0596C63 9.72903 62.9597 2.78491 62.8336 2.36036C62.742 2.05239 62.3949 1.49502 62.0621 1.12171C60.9662 -0.107626 63.4021 -0.00755764 34.9478 0.00867352C17.0003 0.0189768 9.60366 0.0679526 9.25488 0.178748ZM60.417 2.59903L60.7606 2.94539V30.2626V57.5796H57.1729C54.7651 57.5796 53.3956 57.6361 53.009 57.7513C52.2402 57.9803 51.0808 59.1495 50.8536 59.9248C50.7394 60.3147 50.6834 61.6957 50.6834 64.1238V67.7418H30.3127H9.94195L9.59849 67.3953L9.25488 67.0489V34.9971V2.94539L9.59849 2.59903L9.94195 2.25253H35.0077H60.0735L60.417 2.59903ZM27.7997 4.70837C26.095 5.14788 25.7303 5.40363 21.6415 9.02671C19.8709 10.5956 18.2334 11.9994 18.0025 12.1463C17.7715 12.2934 17.3621 12.4145 17.0927 12.4155C16.4755 12.4179 15.3281 12.9542 14.7975 13.4882C14.5744 13.7129 14.2393 14.2296 14.0529 14.6366C13.722 15.3591 13.7152 15.4489 13.7588 18.4474C13.8032 21.4938 13.8067 21.5241 14.1933 22.264C14.7104 23.2538 15.5326 24.0352 16.4683 24.4263C16.9655 24.6342 17.2327 24.8288 17.2327 24.9832C17.2327 25.1138 17.4538 25.6662 17.7239 26.2109C19.7819 30.3591 25.5979 30.3643 27.654 26.2196C27.9265 25.6701 28.1496 25.1338 28.1496 25.0278C28.1496 24.868 29.1315 24.835 33.8881 24.835C38.6446 24.835 39.6265 24.868 39.6265 25.0278C39.6265 25.1338 39.8476 25.6662 40.1177 26.2109C42.1757 30.3591 47.9917 30.3643 50.0478 26.2196C50.3204 25.6701 50.5434 25.1338 50.5434 25.0278C50.5434 24.8775 50.8564 24.835 51.9618 24.835C52.742 24.835 53.6394 24.7578 53.9563 24.6634C54.7251 24.4343 55.8845 23.2651 56.1117 22.4898C56.2236 22.1075 56.2819 20.7981 56.2819 18.6594C56.2819 15.7729 56.2544 15.3763 56.0369 15.1099C55.8533 14.8849 54.8149 14.5288 51.8893 13.6875C49.7429 13.0701 47.9738 12.5472 47.9579 12.5252C47.9421 12.5031 46.99 11.1524 45.8423 9.52367C44.6945 7.89476 43.5129 6.31653 43.2166 6.01646C42.9203 5.7164 42.259 5.27068 41.747 5.02608L40.8161 4.58135L34.6578 4.55467C30.0425 4.53463 28.3242 4.57316 27.7997 4.70837ZM32.7684 9.52127V12.2735H27.07C22.2287 12.2735 21.4024 12.2443 21.5765 12.0794C22.7714 10.9479 26.7468 7.55137 27.0834 7.37438C27.994 6.89577 28.6492 6.7878 30.7039 6.77848L32.7684 6.76903V9.52127ZM40.8161 7.10452C41.6758 7.5134 41.7557 7.60274 43.6096 10.227L45.1053 12.3441L41.0713 12.3871C38.8525 12.4107 36.5806 12.3894 36.0225 12.3397L35.0077 12.2494V9.50927V6.76903L37.562 6.77044C39.9529 6.77171 40.1611 6.79302 40.8161 7.10452ZM49.2303 15.262L51.2062 15.8335L50.9798 16.2765C50.6291 16.9626 50.6827 18.2913 51.0878 18.9523C51.5549 19.7147 52.3145 20.1782 53.2574 20.2763L54.0425 20.358V21.1209C54.0425 21.7428 53.9789 21.948 53.6989 22.2303C53.3798 22.5522 53.2556 22.5768 51.9494 22.5768C50.8544 22.5768 50.5434 22.5341 50.5434 22.384C50.5434 22.278 50.3223 21.7456 50.0522 21.2009C49.4551 19.9976 48.6152 19.1822 47.3495 18.5776C46.504 18.1736 46.2874 18.1308 45.085 18.1308C43.8826 18.1308 43.6659 18.1736 42.8204 18.5776C41.5547 19.1822 40.7148 19.9976 40.1177 21.2009C39.8476 21.7456 39.6265 22.278 39.6265 22.384C39.6265 22.5437 38.6446 22.5768 33.8881 22.5768C29.1315 22.5768 28.1496 22.5437 28.1496 22.384C28.1496 22.278 27.9285 21.7456 27.6584 21.2009C27.0613 19.9976 26.2214 19.1822 24.9557 18.5776C24.1102 18.1736 23.8936 18.1308 22.6912 18.1308C21.4888 18.1308 21.2721 18.1736 20.4266 18.5776C19.9125 18.8231 19.2127 19.2835 18.8718 19.6004C18.2583 20.1706 17.3726 21.628 17.3726 22.0673C17.3726 22.3683 17.2054 22.3539 16.7795 22.016C16.2494 21.5956 15.973 20.877 15.973 19.9194V19.069L16.7199 18.7241C18.0915 18.0909 19.0747 16.7306 19.2816 15.1802L19.3739 14.4879L33.3141 14.5891L47.2544 14.6904L49.2303 15.262ZM17.0391 15.1197C16.9453 15.5927 16.3301 16.5077 16.1058 16.5077C15.9345 16.5077 15.935 15.9214 16.1065 15.4662C16.2128 15.1845 16.7984 14.7083 17.0752 14.6785C17.104 14.6754 17.0878 14.874 17.0391 15.1197ZM23.8108 16.9311V18.0603H25.4904H27.1699V16.9311V15.802H25.4904H23.8108V16.9311ZM37.2471 16.9311V18.0603H38.9267H40.6062V16.9311V15.802H38.9267H37.2471V16.9311ZM54.0425 17.4957C54.0425 18.0199 54.0145 18.0603 53.6506 18.0603C53.2124 18.0603 52.9228 17.8356 52.9228 17.4957C52.9228 17.1558 53.2124 16.9311 53.6506 16.9311C54.0145 16.9311 54.0425 16.9715 54.0425 17.4957ZM23.7246 20.4901C24.9275 20.8485 26.0502 22.4011 26.0502 23.7059C26.0502 25.4548 24.4254 27.0933 22.6912 27.0933C20.9569 27.0933 19.3321 25.4548 19.3321 23.7059C19.3321 22.8188 19.6523 22.1031 20.377 21.3707C21.3589 20.3785 22.4164 20.1003 23.7246 20.4901ZM46.1184 20.4901C47.3213 20.8485 48.444 22.4011 48.444 23.7059C48.444 25.4548 46.8192 27.0933 45.085 27.0933C43.3507 27.0933 41.7259 25.4548 41.7259 23.7059C41.7259 22.8188 42.0461 22.1031 42.7708 21.3707C43.7527 20.3785 44.8102 20.1003 46.1184 20.4901ZM21.5715 23.7059V24.835H22.6912H23.8108V23.7059V22.5768H22.6912H21.5715V23.7059ZM43.9653 23.7059V24.835H45.085H46.2046V23.7059V22.5768H45.085H43.9653V23.7059ZM44.945 32.386L43.4804 33.868H40.1474H36.8145L36.471 34.2145L36.1274 34.5609V38.3845V42.2082L36.471 42.5545L36.8145 42.901H40.6062H44.3979L44.7414 42.5545L45.085 42.2082V38.8472V35.4861L46.5546 34.0092C47.3628 33.1969 48.0241 32.4652 48.0241 32.3832C48.0241 32.1963 46.7338 30.9041 46.5473 30.9041C46.4716 30.9041 45.7505 31.571 44.945 32.386ZM24.9305 36.1263V37.2554H29.4093H33.8881V36.1263V34.9971H29.4093H24.9305V36.1263ZM49.5637 36.1263V37.2554H54.0425H58.5212V36.1263V34.9971H54.0425H49.5637V36.1263ZM40.5659 36.8015C40.2033 37.173 39.9133 37.5381 39.9215 37.613C39.9298 37.688 40.2783 38.0626 40.6958 38.4453L41.4549 39.1413L42.1503 38.4507L42.8456 37.76V39.2014V40.6428H40.6062H38.3668V38.3845V36.1263H39.7961H41.2255L40.5659 36.8015ZM22.6912 40.6428V41.7719H28.2896H33.8881V40.6428V39.5136H28.2896H22.6912V40.6428ZM47.3243 40.6428V41.7719H52.9228H58.5212V40.6428V39.5136H52.9228H47.3243V40.6428ZM20.3118 43.6773L18.8473 45.1593H15.5142H12.1813L11.8379 45.5058L11.4943 45.8521V49.6758V53.4994L11.8379 53.8458L12.1813 54.1923H15.973H19.7647L20.1082 53.8458L20.4518 53.4994V50.1384V46.7773L21.9214 45.3004C22.7296 44.4881 23.391 43.7565 23.391 43.6745C23.391 43.4876 22.1007 42.1953 21.9141 42.1953C21.8384 42.1953 21.1173 42.8622 20.3118 43.6773ZM44.945 43.6773L43.4804 45.1593H40.1474H36.8145L36.471 45.5058L36.1274 45.8521V49.6758V53.4994L36.471 53.8458L36.8145 54.1923H40.6062H44.3979L44.7414 53.8458L45.085 53.4994V50.1384V46.7773L46.5546 45.3004C47.3628 44.4881 48.0241 43.7565 48.0241 43.6745C48.0241 43.4876 46.7338 42.1953 46.5473 42.1953C46.4716 42.1953 45.7505 42.8622 44.945 43.6773ZM24.9305 47.4175V48.5466H29.4093H33.8881V47.4175V46.2884H29.4093H24.9305V47.4175ZM49.5637 47.4175V48.5466H54.0425H58.5212V47.4175V46.2884H54.0425H49.5637V47.4175ZM15.9327 48.0927C15.5701 48.4642 15.2801 48.8293 15.2883 48.9043C15.2966 48.9792 15.6451 49.3538 16.0626 49.7366L16.8217 50.4326L17.5171 49.742L18.2124 49.0512V50.4927V51.934H15.973H13.7336V49.6758V47.4175H15.1629H16.5923L15.9327 48.0927ZM40.5659 48.0927C40.2033 48.4642 39.9133 48.8293 39.9215 48.9043C39.9298 48.9792 40.2783 49.3538 40.6958 49.7366L41.4549 50.4326L42.1503 49.742L42.8456 49.0512V50.4927V51.934H40.6062H38.3668V49.6758V47.4175H39.7961H41.2255L40.5659 48.0927ZM22.6912 51.934V53.0631H28.2896H33.8881V51.934V50.8049H28.2896H22.6912V51.934ZM47.3243 51.934V53.0631H52.9228H58.5212V51.934V50.8049H52.9228H47.3243V51.934ZM20.3118 54.9685L18.8473 56.4505H15.5142H12.1813L11.8379 56.797L11.4943 57.1434V60.967V64.7906L11.8379 65.137L12.1813 65.4835H15.973H19.7647L20.1082 65.137L20.4518 64.7906V61.4297V58.0685L21.9214 56.5916C22.7296 55.7794 23.391 55.0477 23.391 54.9657C23.391 54.7788 22.1007 53.4866 21.9141 53.4866C21.8384 53.4866 21.1173 54.1534 20.3118 54.9685ZM24.9305 58.7088V59.8379H29.4093H33.8881V58.7088V57.5796H29.4093H24.9305V58.7088ZM15.9327 59.384C15.5701 59.7555 15.2801 60.1206 15.2883 60.1955C15.2966 60.2705 15.6451 60.6451 16.0626 61.0278L16.8217 61.7238L17.5171 61.0332L18.2124 60.3425V61.7839V63.2253H15.973H13.7336V60.967V58.7088H15.1629H16.5923L15.9327 59.384ZM59.0811 59.8744C59.0811 59.8945 57.6955 61.307 56.0019 63.0135L52.9228 66.1162V63.3235C52.9228 59.5751 52.6647 59.8379 56.3455 59.8379C57.8501 59.8379 59.0811 59.8543 59.0811 59.8744ZM22.6912 63.2253V64.3544H28.2896H33.8881V63.2253V62.0961H28.2896H22.6912V63.2253Z" fill="white"/>
<path d="M21.9141 30.9039C22.1009 30.9043 23.3906 32.1965 23.3906 32.3834C23.3888 32.467 22.7281 33.1982 21.9209 34.0093L20.4521 35.4859V42.2076L19.7646 42.9009H12.1816L11.4941 42.2076V34.5611L12.1816 33.8677H18.8467L20.3115 32.3863C21.117 31.5712 21.8383 30.9039 21.9141 30.9039ZM13.7334 40.6422H18.2119V37.7593L17.5166 38.4507L16.8213 39.1412L16.0625 38.4449C15.6451 38.0622 15.2965 37.6879 15.2881 37.6129C15.2798 37.5379 15.57 37.1728 15.9326 36.8013L16.5918 36.1255H13.7334V40.6422Z" fill="#DB3138"/>
<path d="M21.9141 42.2009C22.1009 42.2013 23.3906 43.4936 23.3906 43.6804C23.3888 43.7641 22.7281 44.4953 21.9209 45.3064L20.4521 46.783V53.5046L19.7646 54.198H12.1816L11.4941 53.5046V45.8582L12.1816 45.1648H18.8467L20.3115 43.6833C21.117 42.8683 21.8383 42.2009 21.9141 42.2009ZM13.7334 51.9392H18.2119V49.0564L17.5166 49.7478L16.8213 50.4382L16.0625 49.7419C15.6451 49.3592 15.2964 48.9849 15.2881 48.9099C15.2798 48.835 15.57 48.4699 15.9326 48.0984L16.5918 47.4236H13.7334V51.9392Z" fill="#DB3138"/>
<path d="M21.9141 53.4922C22.1009 53.4926 23.3906 54.7849 23.3906 54.9717C23.3888 55.0554 22.7281 55.7866 21.9209 56.5977L20.4521 58.0743V64.796L19.7646 65.4893H12.1816L11.4941 64.796V57.1495L12.1816 56.4561H18.8467L20.3115 54.9747C21.117 54.1596 21.8383 53.4922 21.9141 53.4922ZM13.7334 63.2315H18.2119V60.3487L16.8213 61.7296L16.0625 61.0333C15.645 60.6505 15.2963 60.2762 15.2881 60.2012C15.2802 60.126 15.5702 59.761 15.9326 59.3897L16.5918 58.7149H13.7334V63.2315Z" fill="#DB3138"/>
<path d="M46.5195 42.2009C46.7064 42.2013 47.9961 43.4936 47.9961 43.6804C47.9943 43.7641 47.3335 44.4953 46.5264 45.3064L45.0576 46.783V53.5046L44.3701 54.198H36.7871L36.0996 53.5046V45.8582L36.7871 45.1648H43.4521L44.917 43.6833C45.7225 42.8683 46.4438 42.2009 46.5195 42.2009ZM38.3389 51.9392H42.8174V49.0564L42.1221 49.7478L41.4268 50.4382L40.668 49.7419C40.2505 49.3592 39.9019 48.9849 39.8936 48.9099C39.8853 48.835 40.1754 48.4699 40.5381 48.0984L41.1973 47.4236H38.3389V51.9392Z" fill="#DB3138"/>
<path d="M46.5195 30.9099C46.7064 30.9103 47.9961 32.2026 47.9961 32.3894C47.9943 32.4731 47.3335 33.2042 46.5264 34.0154L45.0576 35.4919V42.2136L44.3701 42.907H36.7871L36.0996 42.2136V34.5671L36.7871 33.8738H43.4521L44.917 32.3923C45.7225 31.5772 46.4438 30.9099 46.5195 30.9099ZM38.3389 40.6482H42.8174V37.7654L42.1221 38.4568L41.4268 39.1472L40.668 38.4509C40.2505 38.0682 39.9019 37.6939 39.8936 37.6189C39.8853 37.544 40.1754 37.1789 40.5381 36.8074L41.1973 36.1326H38.3389V40.6482Z" fill="#DB3138"/>
</svg>
