<svg width="24" height="24" viewBox="0 0 24 24" fill="none" xmlns="http://www.w3.org/2000/svg">
<path d="M2.57129 8.67777L11.7033 13.4272C11.7949 13.4748 11.8966 13.4997 11.9999 13.4997C12.1031 13.4997 12.2048 13.4748 12.2964 13.4272L21.4284 8.67862V16.9286C21.4285 17.6402 21.1562 18.3248 20.6676 18.842C20.1789 19.3592 19.5108 19.6698 18.8004 19.7101L18.6427 19.7143H5.357C4.64546 19.7144 3.96086 19.4421 3.44366 18.9535C2.92646 18.4648 2.61586 17.7967 2.57557 17.0863L2.57129 16.9286V8.67777ZM5.357 4.28577H18.6427C19.3543 4.28572 20.0389 4.55796 20.5561 5.04663C21.0733 5.5353 21.3839 6.20336 21.4241 6.91377L21.4284 7.07148V7.2292L11.9999 12.1321L2.57129 7.2292V7.07148C2.57124 6.35993 2.84348 5.67534 3.33215 5.15814C3.82082 4.64094 4.48888 4.33034 5.19929 4.29005L5.357 4.28577H18.6427H5.357Z" fill="white"/>
</svg>
