<svg width="70" height="70" viewBox="0 0 70 70" fill="none" xmlns="http://www.w3.org/2000/svg">
<path fill-rule="evenodd" clip-rule="evenodd" d="M51.7938 9.45806C48.5475 11.4801 47.5886 12.0113 46.8255 12.2105L45.8799 12.4575L40.7897 11.8437C35.08 11.1553 34.2524 11.1467 31.8589 11.7511C31.1034 11.9419 29.9927 12.3412 29.3908 12.6383C28.7889 12.9355 25.4504 15.0014 21.9718 17.2291C15.4775 21.3885 15.1352 21.6515 14.885 22.6761C14.8327 22.8907 14.5568 23.2153 14.2425 23.432C13.9395 23.6409 13.4993 24.1012 13.2642 24.4545C12.4967 25.6078 12.4194 26.1272 12.4194 30.1229V33.7501H6.20968H0V34.874V35.9979H18.1468C28.1276 35.9979 36.2692 36.0452 36.2393 36.1033C35.2089 38.1003 34.6016 39.742 34.1992 41.6175C33.8453 43.267 33.8508 46.8312 34.2098 48.4959C35.8159 55.943 41.5808 61.5133 48.9613 62.7492C58.937 64.4197 68.3048 57.5673 69.7978 47.5078C70.3664 43.6772 69.6829 40.0787 67.6317 36.1033C67.6018 36.0452 68.1224 35.9979 68.7887 35.9979H70V34.874V33.7501H68.0288H66.0578L64.8592 32.5123C61.2511 28.7864 56.2231 26.7865 51.1593 27.0631C50.2278 27.114 49.2594 27.1925 49.0071 27.2375C48.5745 27.3148 48.5484 27.2958 48.5484 26.9043C48.5484 26.5372 48.6178 26.4686 49.1482 26.3125C50.1941 26.0046 51.8292 25.0714 52.9234 24.1581C53.5055 23.6721 55.8553 22.1134 58.1452 20.6942C60.435 19.2749 62.3864 18.0433 62.4816 17.9571C62.6163 17.8358 62.5274 17.5923 62.0845 16.8683L61.5139 15.9359L59.8648 16.958C58.9578 17.5202 56.9773 18.7471 55.4637 19.6845C53.9501 20.6218 52.3685 21.6855 51.9489 22.0481C50.6964 23.1305 49.4554 23.8629 48.1538 24.2876C47.0279 24.655 46.7606 24.6873 44.9496 24.6757C43.2929 24.6648 42.6204 24.5888 40.7863 24.2045C38.9345 23.8164 38.1655 23.7306 35.7762 23.6449C34.2238 23.5891 32.786 23.4735 32.5812 23.3878C31.8698 23.0904 30.7661 21.9208 30.7661 21.4642C30.7661 21.4216 32.4808 21.3869 34.5766 21.3869H38.3871V20.263V19.1391H33.7243H29.0614L24.1122 21.8723C18.8992 24.7512 18.2566 25.0165 17.509 24.5988C17.0076 24.3187 16.8158 23.717 17.0813 23.2568C17.278 22.916 28.7439 15.4571 30.2016 14.7218C31.5627 14.0352 33.6566 13.523 35.1318 13.5155C35.5638 13.5134 38.1218 13.7795 40.8161 14.107C47.6016 14.9318 47.0708 15.0517 53.0786 11.3385C55.0502 10.1199 56.7418 9.0519 56.8377 8.96494C56.9738 8.84173 56.8929 8.61427 56.4688 7.92784C56.1701 7.44413 55.9011 7.02688 55.8711 7.00046C55.8411 6.97405 54.0063 8.07999 51.7938 9.45806ZM13.0544 9.19169C12.6759 9.40537 12.6131 9.51285 12.2686 10.5351C11.9134 11.5889 11.3401 12.2111 10.6145 12.3307C9.7331 12.4756 9.34613 12.6827 9.17141 13.1029C8.82875 13.9262 9.32425 14.5358 10.4818 14.7152C11.3091 14.8435 11.8718 15.4386 12.2683 16.6048C12.6284 17.6635 12.9476 18.0152 13.5484 18.0152C14.1444 18.0152 14.4951 17.6479 14.816 16.6882C14.9825 16.1901 15.2524 15.6133 15.4157 15.4067C15.7493 14.9847 16.461 14.6434 17.0079 14.6434C17.5143 14.6434 18.0645 14.0581 18.0645 13.5195C18.0645 12.9416 17.5157 12.3956 16.9349 12.3956C15.9493 12.3956 15.2854 11.7549 14.816 10.3507C14.4118 9.14167 13.8258 8.75617 13.0544 9.19169ZM13.8256 13.3027C13.9602 13.4641 13.9536 13.5681 13.7942 13.7946C13.593 14.0806 13.5913 14.0806 13.3391 13.8031C13.1321 13.5753 13.1184 13.486 13.2639 13.3114C13.4861 13.0448 13.6089 13.0428 13.8256 13.3027ZM5.12002 20.4326C4.93867 20.5198 4.70778 20.856 4.57173 21.231C3.9056 23.0673 3.5995 23.4108 2.4356 23.6272C1.75748 23.7533 1.12903 24.2709 1.12903 24.7032C1.12903 25.1463 1.5623 25.739 1.94306 25.8167C3.49788 26.1339 3.88034 26.4551 4.36413 27.8495C4.71653 28.8649 5.06724 29.2544 5.62935 29.2544C6.24129 29.2544 6.58946 28.8943 6.91278 27.9274C7.07931 27.4293 7.34915 26.8526 7.51244 26.6459C7.84607 26.2239 8.55778 25.8826 9.10466 25.8826C9.61103 25.8826 10.1613 25.2973 10.1613 24.7587C10.1613 24.1809 9.61244 23.6348 9.03169 23.6348C8.04605 23.6348 7.38218 22.9941 6.91278 21.5899C6.5052 20.3706 5.96919 20.0246 5.12002 20.4326ZM28.6169 22.3441C28.6527 22.4511 28.5043 22.5093 28.2022 22.5064C27.7561 22.5021 27.7461 22.4912 28.0085 22.2938C28.3106 22.0663 28.5299 22.0845 28.6169 22.3441ZM5.92234 24.5419C6.05698 24.7033 6.05034 24.8073 5.89101 25.0338C5.68976 25.3198 5.68806 25.3198 5.43587 25.0423C5.22883 24.8145 5.21514 24.7253 5.36065 24.5506C5.58292 24.284 5.70571 24.282 5.92234 24.5419ZM31.429 25.2778L32.4841 25.7969L35.4708 25.8992C38.0228 25.9867 38.7556 26.065 40.504 26.4367C41.8834 26.7299 43.1599 26.9007 44.4204 26.9607L46.2903 27.0498V27.5047C46.2903 27.8839 46.2258 27.9755 45.9022 28.0554C45.1071 28.2518 42.6515 29.5355 41.4784 30.368C40.8111 30.8416 39.7076 31.7963 39.0261 32.4896L37.787 33.7501H26.2322H14.6774V30.1605C14.6774 27.1231 14.7127 26.502 14.907 26.1214C15.2202 25.5083 15.2202 25.5083 15.4634 25.8538C15.8393 26.3882 16.8707 26.8868 17.7673 26.9678C18.8962 27.0696 20.134 26.6736 22.0161 25.608L23.498 24.7691L26.936 24.7639L30.3739 24.7587L31.429 25.2778ZM35 28.1304V29.2544H36.129H37.2581V28.1304V27.0065H36.129H35V28.1304ZM54.4085 29.461C60.9931 30.5243 66.0574 35.4231 67.4838 42.1092C67.716 43.1973 67.716 46.7812 67.4838 47.8693C66.1013 54.3501 61.3389 59.0909 54.8286 60.4672C53.7356 60.6983 50.1354 60.6983 49.0423 60.4672C44.1371 59.4302 40.2017 56.5305 37.995 52.3269C35.5515 47.6726 35.5154 42.5373 37.8927 37.8251C40.9194 31.826 47.7212 28.3814 54.4085 29.461ZM20.3226 31.5022V32.6261H21.4516H22.5806V31.5022V30.3783H21.4516H20.3226V31.5022Z" fill="white"/>
<path d="M48.833 34.9202C52.9905 34.9446 53.1588 34.9558 53.7764 35.262C54.7819 35.7607 55.3765 36.3285 55.8994 37.2884L56.3828 38.177L56.4297 41.2757L56.4766 44.3753L56.9805 43.9153C57.8628 43.1109 58.6369 42.822 59.9111 42.8196C61.2242 42.8171 62.0016 43.1044 62.9238 43.9339C64.1663 45.0516 64.5323 46.5431 64.2217 49.2181C63.8262 52.6221 63.2662 53.7924 61.6172 54.6585L60.8994 55.0354H43.9639L43.0713 54.554C42.1071 54.0335 41.5371 53.4417 41.0361 52.4407C40.7188 51.8064 40.7178 51.7808 40.7178 44.9905V38.177L41.0674 37.4739C41.6701 36.2627 42.8234 35.3236 44.1045 35.0013C44.3374 34.9427 46.4656 34.9063 48.833 34.9202ZM48.7178 37.1595C45.5681 37.134 44.5755 37.169 44.2402 37.3167C43.6716 37.5674 43.0789 38.2845 42.9756 38.847C42.93 39.0959 42.9116 42.0293 42.9346 45.3655C42.9754 51.2382 42.9859 51.4442 43.2676 51.8196C43.9715 52.7578 44.0673 52.7827 47.168 52.8304C49.8515 52.8717 49.9941 52.8605 49.9004 52.6194C49.4998 51.5896 49.712 50.11 50.4033 49.1097C50.9108 48.3755 51.4715 48.008 53.0381 47.385L54.208 46.9202L54.167 42.7337C54.1279 38.7587 54.1113 38.5275 53.835 38.1595C53.6749 37.9462 53.3685 37.641 53.1543 37.4817C52.7851 37.2072 52.5565 37.1906 48.7178 37.1595ZM60.918 45.2796C60.272 44.9682 59.6964 44.9262 59.1387 45.1477C58.5883 45.3665 58.2907 45.7003 57.8359 46.6067C57.0974 48.079 56.7628 48.3291 54.1768 49.3518C53.3726 49.6698 52.5729 50.0622 52.3994 50.2229C51.6955 50.8754 51.9058 52.1946 52.7861 52.6477C53.1575 52.8388 53.7527 52.8651 56.875 52.8294L60.5293 52.7874L60.959 52.3782C61.4827 51.8783 61.6138 51.4973 61.8857 49.6966C62.3056 46.9161 62.0691 45.8343 60.918 45.2796Z" fill="#DB3138"/>
</svg>
